# xmcd
#
# Track frame offsets: 
#        150
#        10731
#        22273
#        33564
#        45839
#        59550
#        75037
#        88778
#        103913
#        117085
#        128014
#        141864
#        153877
#        165183
#        177875
#        191076
#        201478
#        217323
#        229638
#        243041
#        255598
#        268473
#        278448
#        289327
#        305263
#        317484
#
# Disc length: 4367 seconds
#
# Revision: 0
# Processed by: cddbd v1.5.2PL0 Copyright (c) Steve Scherf et al.
# Submitted via: ExactAudioCopy v0.90b4
#
DISCID=65110d1a
DTITLE=Billy "Red" Love - Gee...I Wish: The Sun Years, Plus
DYEAR=2011
DGENRE=Blues
TTITLE0=Gee I Wish (Take 6)
TTITLE1=Juiced
TTITLE2=You're Gonna Cry
TTITLE3=Drop Top
TTITLE4=There's No Use
TTITLE5=A Dream
TTITLE6=My Teddy Bear Baby
TTITLE7=Poor Man
TTITLE8=Gee I Wish (Take 2)
TTITLE9=You Could Have Loved Me
TTITLE10=Early In The Morning (Take 2)
TTITLE11=The News Is All Around Town (Take 2)
TTITLE12=If You Want To Make Me Happy (Take 2)
TTITLE13=Hey Now (Take 2)
TTITLE14=Way After Midnight (Take 1)
TTITLE15=Gee I Wish (Take 3)
TTITLE16=Blues Leave Me Alone (Take 2)
TTITLE17=Hart's Bread Boogie (Take 2)
TTITLE18=Early In The Morning (Take 3)
TTITLE19=Hey Now (Take 2)
TTITLE20=Way After Midnight (Take 3)
TTITLE21=The News Is All Around Town (Take 1)
TTITLE22=If You Want To Make Me Happy (Take 1)
TTITLE23=Blues Leave Me Alone (Take 1)
TTITLE24=Hart's Bread Boogie (Take 3)
TTITLE25=Gee I Wish (Take 7)
EXTD=
EXTT0=
EXTT1=
EXTT2=
EXTT3=
EXTT4=
EXTT5=
EXTT6=
EXTT7=
EXTT8=
EXTT9=
EXTT10=
EXTT11=
EXTT12=
EXTT13=
EXTT14=
EXTT15=
EXTT16=
EXTT17=
EXTT18=
EXTT19=
EXTT20=
EXTT21=
EXTT22=
EXTT23=
EXTT24=
EXTT25=
PLAYORDER=
